<mxfile host="65bd71144e">
    <diagram id="ssy-QuHlSGV0z1Yl7wNJ" name="Page-1">
        <mxGraphModel dx="52" dy="747" grid="1" gridSize="10" guides="1" tooltips="1" connect="1" arrows="1" fold="1" page="1" pageScale="1" pageWidth="850" pageHeight="1100" math="0" shadow="0">
            <root>
                <mxCell id="0"/>
                <mxCell id="1" parent="0"/>
                <mxCell id="42" value="&lt;meta charset=&quot;utf-8&quot;&gt;&lt;b id=&quot;docs-internal-guid-5326fd50-7fff-bbc0-21b3-0be7c3202d32&quot; style=&quot;font-weight:normal;&quot;&gt;&lt;img src=&quot;https://lh4.googleusercontent.com/nD2chzhNyCAomfaVEE2ArQsJqUxk9oUk-22D5JWzcRnazLq_VxKRDdeMchNqj7r3olwSQ-XIa_wrC49Bjox1reWu5p2FeUoBmkv6J5iEotyrmRcHrUGNDyf4Hru4fi89X-m8KKc5llUrTs6oR3bECP43Og=s2048&quot; height=&quot;84px;&quot; width=&quot;84px;&quot;&gt;&lt;/b&gt;" style="whiteSpace=wrap;html=1;aspect=fixed;shadow=1;strokeColor=#99FF99;fillColor=none;" parent="1" vertex="1">
                    <mxGeometry x="1080" y="600" width="440" height="440" as="geometry"/>
                </mxCell>
                <mxCell id="43" value="" style="rounded=0;whiteSpace=wrap;html=1;fillColor=#99CCFF;" parent="1" vertex="1">
                    <mxGeometry x="1110" y="770" width="400" height="220" as="geometry"/>
                </mxCell>
                <mxCell id="44" value="" style="rounded=0;whiteSpace=wrap;html=1;strokeColor=#FF9933;" parent="1" vertex="1">
                    <mxGeometry x="1120" y="780" width="380" height="200" as="geometry"/>
                </mxCell>
                <mxCell id="45" style="edgeStyle=none;html=1;entryX=0.5;entryY=0;entryDx=0;entryDy=0;entryPerimeter=0;" parent="1" source="46" target="55" edge="1">
                    <mxGeometry relative="1" as="geometry">
                        <mxPoint x="1188" y="679" as="sourcePoint"/>
                        <mxPoint x="1444" y="844" as="targetPoint"/>
                        <Array as="points">
                            <mxPoint x="1340" y="684"/>
                        </Array>
                    </mxGeometry>
                </mxCell>
                <mxCell id="46" value="User" style="shape=umlActor;verticalLabelPosition=bottom;verticalAlign=top;html=1;outlineConnect=0;" parent="1" vertex="1">
                    <mxGeometry x="1130" y="630" width="60" height="110" as="geometry"/>
                </mxCell>
                <mxCell id="47" value="" style="shape=image;verticalLabelPosition=bottom;labelBackgroundColor=default;verticalAlign=top;aspect=fixed;imageAspect=0;image=https://www.vectorlogo.zone/logos/kubernetes/kubernetes-ar21.png;" parent="1" vertex="1">
                    <mxGeometry x="1130" y="890" width="160" height="80" as="geometry"/>
                </mxCell>
                <mxCell id="48" value="Service Pod B" style="sketch=0;html=1;dashed=0;whitespace=wrap;fillColor=#2875E2;strokeColor=#ffffff;points=[[0.005,0.63,0],[0.1,0.2,0],[0.9,0.2,0],[0.5,0,0],[0.995,0.63,0],[0.72,0.99,0],[0.5,1,0],[0.28,0.99,0]];verticalLabelPosition=bottom;align=center;verticalAlign=top;shape=mxgraph.kubernetes.icon;prIcon=pod" parent="1" vertex="1">
                    <mxGeometry x="1430" y="910" width="50" height="48" as="geometry"/>
                </mxCell>
                <mxCell id="49" value="K8S Private Network" style="text;html=1;strokeColor=none;fillColor=none;align=center;verticalAlign=middle;whiteSpace=wrap;rounded=0;" parent="1" vertex="1">
                    <mxGeometry x="1116" y="785" width="100" height="30" as="geometry"/>
                </mxCell>
                <mxCell id="50" style="edgeStyle=none;html=1;exitX=0.676;exitY=0.8;exitDx=0;exitDy=0;exitPerimeter=0;entryX=0.005;entryY=0.63;entryDx=0;entryDy=0;entryPerimeter=0;startArrow=classic;startFill=1;" parent="1" source="44" target="48" edge="1">
                    <mxGeometry relative="1" as="geometry"/>
                </mxCell>
                <mxCell id="51" value="Service Pod A" style="sketch=0;html=1;dashed=0;whitespace=wrap;fillColor=#2875E2;strokeColor=#ffffff;points=[[0.005,0.63,0],[0.1,0.2,0],[0.9,0.2,0],[0.5,0,0],[0.995,0.63,0],[0.72,0.99,0],[0.5,1,0],[0.28,0.99,0]];verticalLabelPosition=bottom;align=center;verticalAlign=top;shape=mxgraph.kubernetes.icon;prIcon=pod" parent="1" vertex="1">
                    <mxGeometry x="1316.75" y="910" width="50" height="48" as="geometry"/>
                </mxCell>
                <mxCell id="52" value="" style="sketch=0;html=1;aspect=fixed;strokeColor=none;shadow=0;align=center;verticalAlign=top;fillColor=#2D9C5E;shape=mxgraph.gcp2.check" parent="1" vertex="1">
                    <mxGeometry x="1382.5" y="850" width="37.5" height="30" as="geometry"/>
                </mxCell>
                <mxCell id="53" style="edgeStyle=none;html=1;entryX=0.5;entryY=0;entryDx=0;entryDy=0;entryPerimeter=0;startArrow=none;startFill=0;" parent="1" target="51" edge="1">
                    <mxGeometry relative="1" as="geometry">
                        <mxPoint x="1342" y="860" as="sourcePoint"/>
                    </mxGeometry>
                </mxCell>
                <mxCell id="54" style="edgeStyle=none;html=1;entryX=0.5;entryY=0;entryDx=0;entryDy=0;entryPerimeter=0;startArrow=none;startFill=0;" parent="1" source="55" target="48" edge="1">
                    <mxGeometry relative="1" as="geometry">
                        <Array as="points">
                            <mxPoint x="1455" y="810"/>
                        </Array>
                    </mxGeometry>
                </mxCell>
                <mxCell id="55" value="ngrok Ingress Controller" style="sketch=0;html=1;dashed=0;whitespace=wrap;fillColor=#2875E2;strokeColor=#ffffff;points=[[0.005,0.63,0],[0.1,0.2,0],[0.9,0.2,0],[0.5,0,0],[0.995,0.63,0],[0.72,0.99,0],[0.5,1,0],[0.28,0.99,0]];verticalLabelPosition=bottom;align=center;verticalAlign=top;shape=mxgraph.kubernetes.icon;prIcon=ing;shadow=1;" parent="1" vertex="1">
                    <mxGeometry x="1315.75" y="785" width="50" height="48" as="geometry"/>
                </mxCell>
                <mxCell id="56" value="" style="sketch=0;html=1;aspect=fixed;strokeColor=none;shadow=0;align=center;verticalAlign=top;fillColor=#2D9C5E;shape=mxgraph.gcp2.check" parent="1" vertex="1">
                    <mxGeometry x="1329.25" y="730" width="37.5" height="30" as="geometry"/>
                </mxCell>
                <mxCell id="58" value="&lt;meta charset=&quot;utf-8&quot;&gt;&lt;b id=&quot;docs-internal-guid-5326fd50-7fff-bbc0-21b3-0be7c3202d32&quot; style=&quot;font-weight:normal;&quot;&gt;&lt;img src=&quot;https://lh4.googleusercontent.com/nD2chzhNyCAomfaVEE2ArQsJqUxk9oUk-22D5JWzcRnazLq_VxKRDdeMchNqj7r3olwSQ-XIa_wrC49Bjox1reWu5p2FeUoBmkv6J5iEotyrmRcHrUGNDyf4Hru4fi89X-m8KKc5llUrTs6oR3bECP43Og=s2048&quot; height=&quot;84px;&quot; width=&quot;84px;&quot;&gt;&lt;/b&gt;" style="text;whiteSpace=wrap;html=1;" parent="1" vertex="1">
                    <mxGeometry x="1298.75" y="640" width="80" height="10" as="geometry"/>
                </mxCell>
            </root>
        </mxGraphModel>
    </diagram>
</mxfile>